<svg xmlns="http://www.w3.org/2000/svg" viewBox="0 0 42.04 40"><defs><style>.cls-1{fill:#4b4b4b;}</style></defs><title>レイヤー 1</title><g id="レイヤー_2" data-name="レイヤー 2"><g id="レイヤー_1-2" data-name="レイヤー 1"><g id="アイコン"><g id="グループ化_16" data-name="グループ化 16"><path id="パス_70" data-name="パス 70" class="cls-1" d="M21,25.71A12.86,12.86,0,1,1,33.87,12.85h0A12.86,12.86,0,0,1,21,25.71ZM21,3a9.85,9.85,0,1,0,9.85,9.85h0A9.86,9.86,0,0,0,21,3Z"/></g><g id="グループ化_17" data-name="グループ化 17"><path id="パス_71" data-name="パス 71" class="cls-1" d="M40.48,40A1.49,1.49,0,0,1,39,38.53v0a1.32,1.32,0,0,1,.09-.48v-.36a7.44,7.44,0,0,0-7.42-7.42H10.42A7.44,7.44,0,0,0,3,37.66V38a1.28,1.28,0,0,1,.09.48A1.49,1.49,0,0,1,1.62,40h0A1.61,1.61,0,0,1,0,38.41v-.75A10.44,10.44,0,0,1,10.42,27.24h21.2A10.44,10.44,0,0,1,42,37.66v.75A1.57,1.57,0,0,1,40.48,40Z"/></g></g></g></g></svg>