<svg xmlns="http://www.w3.org/2000/svg" viewBox="975 567.029 38.124 40">
  <defs>
    <style>
      .cls-1 {
        fill: #4b4b4b;
      }
    </style>
  </defs>
  <g id="アイコン" transform="translate(975 567.029)">
    <g id="グループ化_19" data-name="グループ化 19" transform="translate(4.271 17.778)">
      <path id="パス_72" data-name="パス 72" class="cls-1" d="M42.79,83.422H16.152A1.438,1.438,0,0,1,14.7,81.97V62.652A1.438,1.438,0,0,1,16.152,61.2H42.79a1.438,1.438,0,0,1,1.452,1.452V81.97A1.438,1.438,0,0,1,42.79,83.422ZM17.6,80.517H41.338V64.1H17.6Z" transform="translate(-14.7 -61.2)"/>
    </g>
    <g id="グループ化_20" data-name="グループ化 20">
      <path id="パス_73" data-name="パス 73" class="cls-1" d="M36.628,20.654H1.45a1.449,1.449,0,0,1-1.336-.9,1.378,1.378,0,0,1,.32-1.569L18.007.436A1.381,1.381,0,0,1,19.053,0,1.426,1.426,0,0,1,20.1.436L37.7,18.184a1.492,1.492,0,0,1,.32,1.569A1.561,1.561,0,0,1,36.628,20.654Zm-31.692-2.9H33.142L19.024,3.515Z" transform="translate(0.004)"/>
    </g>
    <g id="グループ化_21" data-name="グループ化 21" transform="translate(13.276 23.123)">
      <path id="パス_74" data-name="パス 74" class="cls-1" d="M51.481,91.161a5.781,5.781,0,1,1,5.781-5.781A5.777,5.777,0,0,1,51.481,91.161Zm0-8.686a2.876,2.876,0,1,0,2.876,2.876A2.882,2.882,0,0,0,51.481,82.476Z" transform="translate(-45.7 -79.6)"/>
    </g>
  </g>
</svg>
