<svg xmlns="http://www.w3.org/2000/svg" viewBox="-23377 -23945 24.785 30">
  <defs>
    <style>.a{fill:#60df52;}</style>
  </defs>
  <g transform="translate(-23377 -23945.097)">
    <path class="a" d="M25.7,37.78a7.949,7.949,0,0,0,5.313-3.77,7.749,7.749,0,0,0,1.041-3.877V27.8a8.015,8.015,0,0,0-5.313,3.734A7.749,7.749,0,0,0,25.7,35.411Z" transform="translate(-16.474 -17.758)"/>
    <path class="a" d="M29.454,18.659V14.1L21.7,18.516a2.714,2.714,0,0,1,1.4.359,2.884,2.884,0,0,1,1.436,2.657A8.066,8.066,0,0,1,29.454,18.659Z" transform="translate(-13.91 -8.976)"/>
    <path class="a" d="M8.8,20.094V17.689a7.843,7.843,0,0,1,.539-2.872v-.036a3.013,3.013,0,0,1-1.58.467A2.893,2.893,0,0,1,4.99,13.13a2.658,2.658,0,0,1,.287-2.154A2.894,2.894,0,0,1,6.318,9.934l9.19-5.277V1.641A1.547,1.547,0,0,0,13.175.313L3.841,5.7A7.678,7.678,0,0,0,1.005,8.534a7.974,7.974,0,0,0-.754,5.888,7.771,7.771,0,0,0,7.5,5.78A9.27,9.27,0,0,0,8.8,20.094Z" transform="translate(0 0)"/>
    <path class="a" d="M25.7,51.608v4.559l7.754-4.452a2.714,2.714,0,0,1-1.4-.359A2.884,2.884,0,0,1,30.618,48.7,8.4,8.4,0,0,1,25.7,51.608Z" transform="translate(-16.474 -31.155)"/>
    <path class="a" d="M32.413,27.609v2.405a7.843,7.843,0,0,1-.538,2.872v.036a3.013,3.013,0,0,1,1.58-.467,2.893,2.893,0,0,1,2.764,2.118,2.658,2.658,0,0,1-.287,2.154,2.894,2.894,0,0,1-1.041,1.041L25.7,43.082V46.17A1.532,1.532,0,0,0,28,47.5l9.37-5.421a7.784,7.784,0,0,0,3.626-8.724,7.771,7.771,0,0,0-7.5-5.78A5.408,5.408,0,0,0,32.413,27.609Z" transform="translate(-16.474 -17.603)"/>
  </g>
</svg>
